<?xml version="1.0" standalone="no"?>
<!DOCTYPE svg PUBLIC "-//W3C//DTD SVG 20010904//EN"
 "http://www.w3.org/TR/2001/REC-SVG-20010904/DTD/svg10.dtd">
<svg version="1.0" xmlns="http://www.w3.org/2000/svg"
 width="442.000000pt" height="442.000000pt" viewBox="0 0 442.000000 442.000000"
 preserveAspectRatio="xMidYMid meet">
<metadata>
Created by potrace 1.14, written by Peter Selinger 2001-2017
</metadata>
<g transform="translate(0.000000,442.000000) scale(0.100000,-0.100000)"
fill="#000000" stroke="none">
<path d="M2634 3022 c5 -8 -1 -11 -16 -10 -27 2 -176 -11 -198 -17 -8 -2 -42
-7 -75 -10 -94 -9 -303 -53 -385 -81 -94 -33 -176 -74 -326 -164 -71 -42 -129
-70 -146 -70 -19 0 -39 -12 -66 -39 -55 -57 -90 -70 -274 -107 -13 -2 -59 -12
-103 -22 -50 -11 -130 -19 -210 -20 -107 -2 -175 -7 -215 -17 -81 -20 -189
-69 -234 -107 -130 -107 -183 -154 -195 -172 -8 -11 -18 -23 -22 -26 -3 -3
-18 -32 -33 -65 -14 -33 -31 -67 -36 -75 -28 -43 -35 -71 -34 -150 1 -66 5
-94 22 -127 23 -44 28 -73 13 -73 -5 0 -12 -11 -15 -25 -4 -14 -11 -25 -16
-25 -6 0 -10 -11 -10 -25 0 -14 5 -25 11 -25 5 0 7 -4 4 -10 -3 -5 1 -10 10
-10 9 0 14 -4 11 -8 -2 -4 0 -14 6 -22 8 -13 9 -12 5 2 -5 13 0 16 20 14 13
-2 29 -9 34 -17 6 -10 9 -10 9 -1 0 6 5 12 11 12 5 0 7 -6 3 -12 -5 -9 -2 -9
9 1 16 12 21 9 18 -12 -1 -4 7 -4 16 1 18 9 50 8 60 -2 3 -3 0 -12 -6 -20 -10
-12 -9 -14 6 -12 10 2 17 10 16 17 -2 9 5 15 17 15 12 0 19 -5 16 -13 -7 -18
15 -28 28 -12 6 8 22 13 36 12 62 -4 80 -8 78 -18 -2 -5 2 -10 7 -10 6 0 9 5
7 12 -2 7 2 13 8 13 5 0 10 -5 10 -11 0 -8 5 -8 15 1 18 15 20 0 3 -20 -11
-12 -10 -12 3 -2 9 6 20 8 24 4 5 -4 5 -2 2 4 -5 8 8 11 41 10 56 -2 81 -13
61 -28 -11 -8 -11 -9 1 -5 8 2 14 10 13 18 -2 12 28 14 170 14 155 0 172 -2
169 -17 -4 -26 11 -28 38 -7 14 11 18 18 10 17 -8 -2 -21 -10 -27 -18 -11 -13
-12 -11 -9 9 3 23 26 44 26 24 0 -5 15 -8 33 -7 17 1 32 3 32 4 0 1 8 3 18 5
9 2 15 -1 11 -6 -3 -5 2 -9 11 -9 9 0 14 4 11 8 -3 5 1 9 9 9 8 0 17 -7 19
-14 3 -8 1 -11 -5 -8 -12 8 -64 -24 -54 -33 3 -4 10 0 14 7 5 7 14 10 21 6 8
-5 7 -12 -5 -25 -12 -14 -13 -20 -4 -26 7 -4 10 -3 6 3 -4 6 0 16 8 23 12 10
13 16 4 27 -10 12 -7 13 19 8 20 -3 32 -1 32 5 0 6 -4 9 -9 6 -5 -3 -11 0 -14
7 -5 14 69 18 91 4 15 -10 16 -27 1 -27 -5 0 -7 5 -3 12 5 7 3 8 -6 3 -8 -5
-11 -4 -7 2 4 6 -3 10 -16 9 -12 0 -22 -7 -22 -14 0 -7 -7 -17 -15 -22 -12 -7
-10 -9 7 -8 15 2 20 8 17 21 -2 11 2 17 9 14 7 -2 11 -13 9 -23 -2 -13 0 -15
6 -6 7 10 15 8 38 -10 20 -15 24 -17 15 -5 -8 10 -16 29 -17 42 -2 21 0 23 16
13 14 -9 16 -16 8 -25 -10 -12 -4 -17 16 -14 5 1 5 -6 2 -16 -4 -9 -4 -14 0
-10 4 4 14 1 23 -6 8 -6 5 3 -8 21 -12 17 -19 32 -15 32 3 0 2 6 -4 13 -9 11
-5 13 21 12 18 0 37 -4 43 -8 6 -3 14 -3 18 0 4 4 23 8 44 9 20 0 32 -1 25 -3
-7 -2 -9 -12 -6 -21 4 -15 3 -15 -6 -2 -6 8 -11 10 -11 4 0 -6 12 -21 27 -35
15 -13 22 -17 15 -8 -6 9 -9 19 -5 22 10 10 35 -31 27 -45 -4 -7 -3 -8 5 -4 7
4 9 17 6 29 -6 21 -5 21 9 3 14 -18 15 -18 13 2 -1 13 -7 19 -19 17 -10 -2
-20 1 -23 6 -4 5 -11 7 -16 4 -5 -4 -9 -2 -9 2 0 5 9 14 19 20 17 10 21 10 25
-5 4 -12 17 -17 41 -18 19 0 35 3 35 8 0 4 5 8 11 8 8 0 9 -4 0 -13 -6 -8 -7
-17 -3 -21 4 -4 2 -7 -3 -5 -15 3 -45 -12 -45 -23 0 -6 7 -4 16 3 27 22 44 19
65 -14 13 -20 18 -24 15 -11 -4 13 -2 21 6 21 7 0 18 2 23 3 21 6 75 -13 75
-26 0 -7 4 -16 10 -19 6 -3 7 1 4 9 -3 9 -1 16 5 16 6 0 11 -4 11 -9 0 -5 10
-7 22 -3 16 4 19 2 13 -8 -6 -9 -4 -11 6 -4 8 4 32 9 54 10 45 2 82 10 120 24
20 8 25 7 20 -3 -4 -6 1 -3 10 8 9 11 19 20 23 19 4 -1 17 5 30 14 19 12 25
12 40 1 15 -12 16 -12 5 1 -10 13 -5 22 27 53 22 20 47 37 56 37 14 0 15 2 3
17 -12 14 -12 16 0 8 11 -6 13 -4 8 8 -3 9 -2 19 2 21 10 7 8 -45 -2 -62 -5
-7 -12 -10 -17 -7 -5 3 -14 -3 -20 -14 -5 -11 -6 -22 -1 -25 13 -8 20 4 14 22
-4 10 -3 14 2 10 4 -4 19 1 32 12 13 10 31 16 40 13 12 -5 14 -3 8 7 -5 8 -3
11 6 8 8 -3 14 -11 14 -19 0 -8 10 -15 22 -15 12 -1 20 2 17 7 -2 4 -12 5 -21
2 -10 -4 -14 -2 -9 5 3 6 1 14 -5 17 -5 4 -8 14 -5 22 4 10 -3 7 -21 -6 -14
-12 -29 -18 -32 -15 -3 4 -1 9 6 11 7 2 11 10 9 16 -1 7 -1 9 1 5 6 -11 24
-10 20 1 -1 5 1 9 6 10 22 3 29 0 24 -13 -7 -18 11 -36 30 -29 8 3 13 0 11 -7
-2 -7 4 -14 12 -16 8 -1 25 -5 37 -8 13 -3 26 0 29 6 5 7 2 8 -6 3 -10 -6 -12
-4 -7 8 3 10 2 17 -3 17 -5 0 -10 -7 -12 -15 -3 -14 -6 -14 -26 0 -12 9 -20
21 -16 26 3 6 12 3 20 -8 13 -17 14 -17 7 1 -5 14 -3 17 7 11 8 -5 11 -4 7 2
-4 6 0 14 9 17 12 5 15 2 10 -9 -3 -9 -2 -13 4 -10 6 3 10 1 10 -5 0 -6 5 -8
12 -4 8 5 9 2 5 -9 -3 -10 -2 -17 4 -17 6 0 7 -5 3 -12 -4 -7 -3 -8 5 -4 6 4
9 11 7 15 -3 4 -7 19 -10 34 -4 21 -1 25 15 24 19 -1 28 -17 9 -17 -5 0 -10
-5 -10 -11 0 -8 4 -8 14 0 7 6 21 8 30 5 10 -4 25 1 35 10 16 15 19 15 31 1
11 -13 15 -12 37 10 23 23 26 23 49 8 15 -9 24 -11 24 -4 0 6 -6 11 -12 11
-10 0 -9 3 1 9 11 7 11 10 0 15 -8 3 -5 4 6 3 13 -2 19 -9 17 -21 -3 -15 -1
-16 11 -5 11 10 12 16 3 22 -7 5 -3 7 9 5 13 -3 19 -10 17 -23 -2 -16 -1 -17
7 -5 5 8 7 18 5 22 -3 4 -1 8 4 8 6 0 12 -7 16 -15 3 -8 0 -15 -6 -15 -6 0 -8
-3 -5 -7 4 -3 18 4 32 17 14 13 27 22 28 19 2 -2 9 -13 16 -24 11 -19 11 -19
9 -1 -2 10 3 21 11 24 8 3 11 0 7 -7 -4 -6 -2 -11 4 -11 7 0 10 7 7 15 -4 8
-2 17 3 20 9 6 11 1 14 -35 1 -9 10 -14 24 -13 15 2 21 -1 16 -9 -4 -7 -3 -8
5 -4 16 10 3 28 -17 22 -13 -4 -17 1 -18 18 -1 16 3 23 11 20 7 -3 15 2 19 12
5 13 9 14 21 4 8 -7 15 -17 15 -22 0 -6 -7 -5 -15 2 -10 9 -15 9 -15 1 0 -6 5
-11 11 -11 5 0 7 -5 4 -10 -3 -6 0 -13 9 -16 8 -3 12 -13 9 -22 -4 -15 -3 -15
6 -2 8 11 7 18 -4 26 -13 10 -12 14 6 30 22 19 22 19 15 -6 -3 -14 -3 -19 0
-12 3 6 10 9 16 6 7 -4 7 0 0 12 -5 11 -7 24 -5 31 3 8 -9 10 -36 8 -23 -2
-41 1 -41 6 0 10 8 12 73 11 27 0 45 3 42 9 -10 15 2 10 16 -8 12 -14 12 -16
0 -8 -10 6 -12 4 -6 -4 6 -10 3 -11 -12 -2 -20 10 -22 4 -14 -41 2 -16 20 -7
26 12 4 11 11 18 16 15 5 -4 5 -13 0 -23 -6 -12 -5 -24 5 -37 8 -10 14 -14 14
-9 0 6 -5 15 -12 22 -9 9 -9 12 1 12 7 0 10 4 7 9 -3 5 1 11 9 15 8 3 19 -3
24 -12 6 -9 11 -12 11 -7 1 6 3 18 5 28 3 14 0 16 -10 7 -8 -7 -16 -7 -19 -2
-6 10 15 22 40 22 8 0 11 -6 8 -15 -4 -8 -2 -15 4 -15 11 0 11 18 -1 37 -9 15
10 27 45 29 23 1 27 -2 25 -25 -1 -17 2 -25 12 -23 9 2 11 -3 7 -13 -3 -9 -2
-14 2 -12 4 3 17 1 29 -4 16 -6 20 -14 17 -31 -4 -21 -4 -21 5 -3 9 21 -3 45
-23 45 -7 0 -12 12 -11 28 0 17 6 26 14 24 9 -2 11 3 7 13 -3 10 -2 13 5 10 5
-4 16 -2 23 4 10 8 17 7 27 -5 12 -14 14 -14 26 2 7 10 13 12 13 6 0 -7 8 -12
18 -12 13 0 14 2 3 9 -9 6 -10 11 -2 15 6 4 11 2 11 -3 0 -6 3 -10 8 -8 4 1 8
-2 9 -7 1 -5 7 -13 15 -17 10 -7 10 -9 0 -9 -7 0 -11 -4 -8 -9 3 -4 -1 -17 -9
-27 -22 -29 -18 -40 5 -11 11 14 20 30 20 36 0 6 5 11 11 11 5 0 7 -4 4 -10
-3 -6 1 -7 9 -4 9 4 18 -1 22 -10 3 -9 11 -13 17 -9 6 4 8 0 5 -9 -4 -8 -2
-21 3 -29 5 -10 8 -5 6 14 -1 15 -8 32 -16 36 -8 6 -9 11 -3 15 6 3 18 -4 26
-16 9 -12 16 -16 16 -9 0 11 3 11 16 0 15 -12 14 -14 -7 -20 -19 -6 -20 -7 -5
-8 11 -1 30 9 43 21 13 12 23 17 23 11 0 -6 -7 -16 -15 -23 -8 -7 -15 -17 -15
-22 0 -6 8 -1 18 11 16 20 18 21 37 6 20 -16 20 -16 -3 -12 -27 6 -51 -28 -32
-47 8 -8 9 -6 4 8 -5 13 -4 17 4 12 8 -5 10 -2 6 9 -5 11 -2 14 9 9 9 -3 21
-3 26 0 15 9 2 36 -17 36 -13 0 -14 2 -3 13 10 10 17 6 37 -18 22 -28 64 -43
64 -23 0 5 -10 6 -22 3 -22 -7 -22 -6 -6 11 14 14 20 15 32 5 8 -7 14 -18 12
-24 -1 -7 -1 -8 2 -4 2 4 11 2 20 -5 15 -11 15 -11 5 2 -11 15 -4 43 11 41 3
-1 7 0 9 0 1 1 51 3 111 4 60 2 125 7 145 11 20 4 40 6 44 5 5 -1 6 3 2 9 -3
5 0 10 7 10 27 1 96 130 89 169 -1 8 2 10 10 5 8 -4 10 -3 5 5 -8 12 17 43 28
36 3 -3 4 -2 2 1 -3 3 1 23 9 43 7 21 15 53 18 72 3 19 8 45 12 59 7 29 7 208
0 220 -4 7 -7 22 -20 115 -9 67 -47 174 -64 180 -9 2 -47 11 -86 19 -38 8 -79
16 -90 19 -11 3 -51 12 -88 21 -54 13 -86 29 -160 82 -51 37 -91 71 -89 76 1
5 -2 7 -7 4 -5 -3 -48 14 -95 38 -47 24 -109 52 -138 62 -29 9 -56 22 -60 28
-6 8 -8 8 -8 0 0 -8 -11 -8 -38 1 -21 8 -56 16 -78 19 -22 4 -49 8 -60 10 -21
4 -88 12 -189 22 -70 7 -219 9 -325 3 -41 -2 -81 1 -89 5 -10 6 -12 5 -7 -2z
m1030 -1260 c3 7 3 2 0 -10 -5 -22 -4 -23 16 -12 18 10 20 14 9 21 -8 5 -9 9
-3 9 18 0 24 -12 14 -25 -8 -9 -6 -14 5 -19 9 -3 14 -2 11 3 -3 5 1 14 9 21
12 10 13 7 9 -16 -4 -22 -2 -25 9 -16 10 9 18 8 33 -6 11 -9 26 -18 34 -20 8
-2 20 -8 25 -14 7 -8 6 -9 -3 -4 -7 4 -15 1 -18 -9 -5 -12 -10 -13 -20 -4 -8
6 -12 14 -10 18 2 3 -3 12 -11 20 -12 11 -14 11 -11 -1 2 -7 -4 -21 -12 -29
-13 -15 -17 -14 -36 13 -13 17 -25 25 -29 19 -8 -14 -25 -14 -25 -1 0 6 7 10
15 10 8 0 15 5 15 10 0 6 -13 8 -30 5 -24 -4 -30 -2 -30 12 0 15 -2 15 -9 4
-5 -8 -8 -23 -6 -33 2 -10 -1 -18 -7 -18 -5 0 -7 7 -4 16 4 10 2 13 -6 8 -7
-5 -8 -3 -3 6 5 8 4 11 -3 6 -6 -4 -8 -14 -5 -24 6 -15 5 -15 -14 1 -13 11
-23 14 -27 8 -10 -15 -53 7 -59 31 -5 18 -4 18 19 3 24 -15 33 -8 14 11 -6 6
-2 10 12 11 18 2 20 0 8 -7 -8 -5 -12 -10 -7 -11 24 -5 33 -3 45 8 7 7 18 13
24 13 6 0 0 -9 -13 -20 -27 -22 -14 -27 15 -5 10 8 24 12 29 8 7 -4 8 1 4 13
-7 18 -6 18 7 1 11 -14 15 -15 20 -5z m-364 -42 c-6 -11 -9 -24 -6 -29 3 -4
-1 -8 -9 -8 -10 0 -11 5 -4 19 5 10 6 18 2 18 -4 0 -1 5 7 10 21 14 22 13 10
-10z m-126 -12 c-3 -5 -9 -6 -14 -3 -8 5 -25 -23 -22 -37 2 -9 -12 -11 -20 -3
-8 8 33 52 48 52 7 0 11 -4 8 -9z m476 -7 c-15 -28 -32 -37 -28 -15 2 16 17
29 36 33 1 1 -2 -8 -8 -18z m-520 -1 c0 -5 -4 -10 -10 -10 -5 0 -10 5 -10 10
0 6 5 10 10 10 6 0 10 -4 10 -10z m-168 -28 c12 -12 11 -13 -19 -16 -10 -1
-28 -7 -41 -14 -12 -7 -27 -10 -33 -6 -6 3 -18 -1 -28 -10 -17 -16 -19 -16
-25 0 -4 9 -12 14 -22 10 -8 -3 -12 -2 -9 4 8 13 -1 13 -25 0 -16 -8 -18 -8
-14 5 3 8 10 12 15 9 5 -3 9 -1 9 4 0 12 32 11 49 -2 12 -9 14 -8 9 5 -4 9 -1
16 7 16 17 0 15 -18 -5 -35 -13 -11 -11 -11 8 -2 12 6 22 18 22 26 0 19 22 14
28 -7 3 -11 2 -11 -7 1 -7 9 -11 10 -11 3 0 -24 20 -23 31 1 12 27 39 30 61 8z
m-227 -21 c-3 -6 -11 -9 -16 -6 -8 6 -13 -8 -10 -27 0 -5 -4 -8 -10 -8 -6 0
-9 7 -6 14 4 10 1 13 -8 10 -8 -3 -13 -9 -12 -12 1 -4 -8 -17 -20 -29 -19 -19
-23 -20 -34 -7 -10 13 -14 13 -29 -1 -21 -19 -34 -19 -50 0 -7 9 -15 13 -18
10 -3 -3 -11 0 -19 6 -12 11 -18 2 -14 -23 0 -5 -4 -8 -9 -8 -5 0 -10 5 -10
10 0 19 -2 25 -11 36 -6 8 -2 11 13 10 13 -1 29 2 37 8 9 7 16 6 25 -4 6 -8
22 -16 35 -18 21 -2 22 0 10 15 -9 11 -10 14 -1 9 6 -4 12 -3 12 1 0 5 9 9 21
10 12 1 19 -3 16 -10 -2 -7 -11 -11 -21 -9 -23 4 -20 -3 9 -22 19 -13 23 -13
19 -2 -3 8 0 17 5 21 6 3 8 12 5 18 -4 7 -4 9 1 5 4 -4 15 -2 23 5 13 9 14 9
8 0 -4 -7 -2 -13 3 -13 6 0 11 4 11 9 0 6 9 8 20 6 11 -2 20 1 20 7 0 6 3 9 6
5 3 -3 3 -11 -1 -16z m299 7 c-3 -4 -9 -8 -15 -8 -5 0 -9 4 -9 8 0 5 7 9 15 9
8 0 12 -4 9 -9z m56 2 c0 -5 -4 -10 -10 -10 -5 0 -10 5 -10 10 0 6 5 10 10 10
6 0 10 -4 10 -10z m-665 -50 c10 8 15 8 21 -1 6 -10 -17 -32 -36 -34 -3 0 -15
-6 -26 -13 -26 -14 -37 -6 -24 19 6 9 7 19 2 22 -4 2 -2 3 4 1 6 -1 17 2 25 7
8 5 15 4 17 -2 3 -6 9 -6 17 1z m-2065 -120 c0 -5 -5 -10 -11 -10 -5 0 -7 5
-4 10 3 6 8 10 11 10 2 0 4 -4 4 -10z m1230 -12 c0 -4 -4 -8 -9 -8 -6 0 -12 4
-15 8 -3 5 1 9 9 9 8 0 15 -4 15 -9z m40 8 c0 -3 -4 -8 -10 -11 -5 -3 -10 -1
-10 4 0 6 5 11 10 11 6 0 10 -2 10 -4z m45 -57 c4 -21 3 -22 -11 -7 -9 9 -13
21 -9 28 9 14 14 9 20 -21z m30 2 c3 -5 1 -12 -5 -16 -5 -3 -10 1 -10 9 0 18
6 21 15 7z"/>
<path d="M3543 1733 c-7 -2 -13 -9 -13 -15 0 -7 5 -7 13 1 8 6 18 7 22 3 5 -4
5 -1 1 6 -4 6 -8 12 -9 11 -1 0 -8 -3 -14 -6z"/>
<path d="M3707 1704 c3 -7 8 -14 12 -15 3 0 13 -2 21 -4 10 -1 16 5 16 17 0
18 -1 18 -13 2 -7 -10 -13 -13 -13 -7 0 6 -7 13 -14 16 -10 4 -13 1 -9 -9z"/>
<path d="M3795 1680 c-3 -5 -1 -10 4 -10 6 0 11 5 11 10 0 6 -2 10 -4 10 -3 0
-8 -4 -11 -10z"/>
<path d="M2916 1671 c-3 -4 6 -7 19 -7 14 0 22 2 19 5 -8 8 -34 10 -38 2z"/>
<path d="M2790 1656 c0 -2 7 -7 16 -10 8 -3 12 -2 9 4 -6 10 -25 14 -25 6z"/>
<path d="M2650 1620 c-6 -11 -8 -20 -6 -20 3 0 10 9 16 20 6 11 8 20 6 20 -3
0 -10 -9 -16 -20z"/>
<path d="M2505 1621 c-3 -5 -1 -12 5 -16 5 -3 10 -3 10 1 0 4 10 -1 22 -12 12
-10 18 -14 15 -7 -4 6 -4 13 0 16 5 2 2 2 -5 1 -7 -2 -15 3 -18 11 -7 17 -20
20 -29 6z"/>
<path d="M2579 1593 c-13 -16 -12 -17 4 -4 16 13 21 21 13 21 -2 0 -10 -8 -17
-17z"/>
<path d="M2426 1601 c-3 -5 -15 -7 -25 -4 -13 3 -23 -2 -31 -19 -9 -19 -9 -20
2 -7 7 9 21 15 30 13 9 -1 22 4 29 12 6 8 9 14 6 14 -3 0 -8 -4 -11 -9z"/>
<path d="M3716 2907 c3 -10 9 -15 12 -12 3 3 0 11 -7 18 -10 9 -11 8 -5 -6z"/>
<path d="M3345 1720 c-10 -11 -23 -17 -29 -13 -6 4 -6 0 1 -9 7 -8 10 -18 6
-21 -3 -4 -1 -7 5 -7 7 0 12 4 12 8 0 4 8 8 18 8 9 1 23 3 31 5 7 2 16 -2 18
-9 3 -7 -1 -10 -10 -6 -8 3 -18 1 -22 -5 -4 -7 0 -8 11 -4 10 4 15 2 11 -4 -3
-5 0 -10 8 -10 8 0 12 4 10 8 -3 3 3 13 12 20 14 12 15 11 9 -11 -6 -23 -6
-23 9 3 9 16 18 37 20 48 4 18 2 18 -18 4 -26 -18 -41 -19 -31 -2 5 9 4 9 -6
0 -11 -10 -17 -10 -30 2 -15 14 -19 13 -35 -5z m41 -18 c-3 -2 -17 -6 -32 -8
-25 -2 -25 -2 -8 17 13 15 20 16 31 8 7 -7 11 -14 9 -17z m68 5 c-6 -16 -41
-19 -50 -5 -4 7 -2 8 4 4 7 -4 20 -2 29 3 23 13 23 13 17 -2z"/>
<path d="M3355 1710 c-3 -5 -1 -10 4 -10 6 0 11 5 11 10 0 6 -2 10 -4 10 -3 0
-8 -4 -11 -10z"/>
<path d="M3204 1709 c-6 -11 -6 -10 27 -14 15 -2 26 1 26 8 0 14 -45 19 -53 6z"/>
<path d="M3227 1683 c-3 -5 -2 -15 3 -23 11 -17 1 -42 -14 -33 -6 3 -7 2 -3
-2 14 -16 36 -14 30 3 -4 10 -2 13 5 8 21 -12 24 16 4 36 -11 11 -22 16 -25
11z m31 -39 c-4 -3 -12 5 -18 18 -12 22 -12 22 6 6 10 -10 15 -20 12 -24z"/>
<path d="M3495 1670 c-4 -6 1 -7 11 -3 13 5 15 3 9 -7 -5 -9 -4 -11 3 -6 7 4
12 11 12 17 0 12 -27 12 -35 -1z"/>
<path d="M3350 1660 c0 -6 7 -13 15 -16 8 -4 12 -11 8 -17 -3 -6 -1 -7 5 -3
15 9 15 9 -8 29 -11 9 -20 12 -20 7z"/>
<path d="M3855 1660 c-3 -6 1 -7 9 -4 18 7 21 14 7 14 -6 0 -13 -4 -16 -10z"/>
<path d="M3198 1643 c7 -3 16 -2 19 1 4 3 -2 6 -13 5 -11 0 -14 -3 -6 -6z"/>
<path d="M3470 1640 c0 -5 6 -7 14 -4 11 4 13 -1 10 -18 -4 -21 -3 -21 5 -3 4
11 7 23 4 28 -6 10 -33 9 -33 -3z"/>
<path d="M3536 1637 c3 -10 9 -15 12 -12 3 3 0 11 -7 18 -10 9 -11 8 -5 -6z"/>
<path d="M3140 1628 c0 -9 7 -19 16 -22 15 -6 15 -4 3 11 -7 10 -15 20 -16 22
-2 2 -3 -3 -3 -11z"/>
<path d="M3290 1631 c0 -6 4 -13 10 -16 6 -3 7 1 4 9 -7 18 -14 21 -14 7z"/>
<path d="M3436 1627 c3 -10 9 -15 12 -12 3 3 0 11 -7 18 -10 9 -11 8 -5 -6z"/>
<path d="M3399 1628 c-6 -22 -5 -38 3 -38 6 0 8 6 5 14 -3 8 -1 17 6 20 9 3 9
5 0 5 -7 1 -13 0 -14 -1z"/>
<path d="M3572 1621 c-11 -7 -10 -9 3 -14 11 -5 14 -3 9 5 -5 8 -2 9 10 5 10
-4 15 -3 11 3 -7 12 -16 12 -33 1z"/>
<path d="M3701 1621 c-10 -7 -7 -9 12 -8 14 1 23 5 20 10 -6 9 -15 9 -32 -2z"/>
<path d="M3070 1611 c0 -7 -5 -9 -12 -5 -7 5 -8 3 -3 -5 5 -9 10 -10 18 -2 6
6 8 14 4 18 -4 3 -7 1 -7 -6z"/>
<path d="M3774 1612 c3 -5 0 -13 -6 -15 -9 -4 -10 -6 -1 -6 17 -1 25 16 12 25
-7 4 -9 3 -5 -4z"/>
<path d="M2839 1593 c-12 -16 -12 -17 1 -6 13 10 18 9 26 -5 6 -9 10 -24 9
-33 -2 -9 3 -16 11 -16 9 0 11 4 4 12 -5 7 -8 14 -6 16 3 2 -3 15 -13 27 -17
23 -18 23 -32 5z"/>
<path d="M3092 1605 c4 -4 0 -13 -8 -20 -15 -11 -15 -12 -1 -12 20 0 30 24 14
33 -7 4 -9 4 -5 -1z"/>
<path d="M2760 1595 c0 -5 5 -17 10 -25 5 -8 10 -10 10 -5 0 6 -5 17 -10 25
-5 8 -10 11 -10 5z"/>
<path d="M3217 1581 c-4 -17 -3 -21 5 -13 5 5 8 16 6 23 -3 8 -7 3 -11 -10z"/>
<path d="M3250 1586 c0 -8 4 -17 9 -20 5 -4 7 3 4 14 -6 23 -13 26 -13 6z"/>
<path d="M3301 1584 c0 -11 3 -14 6 -6 3 7 2 16 -1 19 -3 4 -6 -2 -5 -13z"/>
<path d="M3595 1589 c-4 -6 -5 -12 -2 -15 2 -3 7 2 10 11 7 17 1 20 -8 4z"/>
<path d="M3677 1593 c-12 -12 -7 -21 16 -26 20 -5 20 -5 5 7 -10 7 -15 16 -11
19 3 4 4 7 1 7 -2 0 -8 -3 -11 -7z"/>
<path d="M3715 1590 c3 -5 8 -10 11 -10 2 0 4 5 4 10 0 6 -5 10 -11 10 -5 0
-7 -4 -4 -10z"/>
<path d="M2671 1580 c-9 -5 -4 -7 13 -7 29 0 32 2 13 10 -8 3 -20 2 -26 -3z"/>
<path d="M2900 1582 c0 -5 7 -9 15 -9 8 0 15 4 15 9 0 4 -7 8 -15 8 -8 0 -15
-4 -15 -8z"/>
<path d="M3170 1580 c0 -4 7 -7 15 -6 23 3 26 12 5 13 -11 1 -20 -2 -20 -7z"/>
<path d="M3456 1573 c-6 -14 -5 -15 5 -6 7 7 10 15 7 18 -3 3 -9 -2 -12 -12z"/>
<path d="M3490 1581 c0 -6 4 -13 10 -16 6 -3 7 1 4 9 -7 18 -14 21 -14 7z"/>
<path d="M3617 1576 c-4 -10 -1 -13 8 -9 8 3 12 9 9 14 -7 12 -11 11 -17 -5z"/>
<path d="M3785 1580 c-3 -6 1 -7 9 -4 18 7 21 14 7 14 -6 0 -13 -4 -16 -10z"/>
<path d="M3387 1567 c-3 -7 3 -13 14 -13 13 0 15 3 7 13 -6 7 -12 13 -13 13
-2 0 -5 -6 -8 -13z"/>
<path d="M3736 1571 c-4 -5 3 -7 14 -4 23 6 26 13 6 13 -8 0 -17 -4 -20 -9z"/>
<path d="M2593 1555 c-3 -9 -3 -19 1 -22 3 -4 6 1 6 11 0 10 5 14 12 10 7 -4
8 -3 4 4 -10 16 -15 15 -23 -3z"/>
<path d="M2750 1561 c0 -6 4 -13 10 -16 6 -3 7 1 4 9 -7 18 -14 21 -14 7z"/>
<path d="M2948 1563 c7 -3 16 -2 19 1 4 3 -2 6 -13 5 -11 0 -14 -3 -6 -6z"/>
<path d="M3031 1563 c3 -18 -2 -27 -9 -17 -5 8 -14 3 -26 -15 -20 -26 -20 -26
0 -8 12 9 23 15 26 12 3 -3 11 1 17 9 8 10 9 16 1 21 -6 4 -10 3 -9 -2z"/>
<path d="M2657 1549 c7 -7 15 -10 18 -7 3 3 -2 9 -12 12 -14 6 -15 5 -6 -5z"/>
<path d="M2710 1545 c0 -8 4 -15 10 -15 5 0 7 7 4 15 -4 8 -8 15 -10 15 -2 0
-4 -7 -4 -15z"/>
<path d="M2975 1551 c-3 -6 -15 -8 -27 -6 -11 3 -18 1 -14 -2 12 -13 35 -11
47 3 6 8 9 14 6 14 -3 0 -8 -4 -12 -9z"/>
<path d="M3155 1551 c-3 -5 -2 -12 3 -15 5 -3 9 1 9 9 0 17 -3 19 -12 6z"/>
<path d="M2530 1539 c0 -5 5 -7 10 -4 6 3 10 8 10 11 0 2 -4 4 -10 4 -5 0 -10
-5 -10 -11z"/>
<path d="M3054 1538 c-4 -7 -3 -10 1 -5 5 4 18 -1 29 -10 21 -18 21 -18 2 5
-22 26 -23 26 -32 10z"/>
<path d="M3130 1541 c0 -6 4 -13 10 -16 6 -3 7 1 4 9 -7 18 -14 21 -14 7z"/>
<path d="M3192 1525 c-17 -19 -16 -20 3 -4 11 9 28 15 38 14 9 -2 17 1 17 5 0
16 -41 6 -58 -15z"/>
<path d="M3438 1539 c-6 -4 4 -6 21 -5 17 0 31 4 31 8 0 8 -37 6 -52 -3z"/>
<path d="M3611 1534 c0 -11 3 -14 6 -6 3 7 2 16 -1 19 -3 4 -6 -2 -5 -13z"/>
<path d="M3630 1543 c0 -6 8 -17 18 -24 16 -13 16 -13 2 6 -8 11 -16 22 -17
24 -2 2 -3 0 -3 -6z"/>
<path d="M3549 1523 c-13 -16 -12 -17 4 -4 16 13 21 21 13 21 -2 0 -10 -8 -17
-17z"/>
<path d="M3317 1508 c19 -21 31 -25 14 -5 -6 8 -9 16 -6 19 3 2 -2 5 -10 5
-13 0 -13 -3 2 -19z"/>
<path d="M2283 1512 c-10 -7 -10 -12 0 -25 11 -16 12 -15 12 8 0 14 0 25 0 25
0 0 -6 -4 -12 -8z"/>
<path d="M2316 1507 c3 -10 9 -15 12 -12 3 3 0 11 -7 18 -10 9 -11 8 -5 -6z"/>
<path d="M2530 1506 c0 -8 4 -17 9 -20 5 -4 7 3 4 14 -6 23 -13 26 -13 6z"/>
<path d="M2575 1510 c-4 -6 -11 -7 -17 -4 -7 4 -8 2 -4 -5 6 -9 11 -9 22 0 14
11 18 19 10 19 -3 0 -8 -5 -11 -10z"/>
<path d="M2695 1510 c-4 -6 -11 -8 -16 -5 -5 4 -9 2 -9 -4 0 -5 8 -9 18 -8 10
0 19 7 19 14 0 16 -4 16 -12 3z"/>
<path d="M2863 1502 c10 -10 15 -21 12 -24 -3 -2 2 -5 10 -5 12 0 10 6 -7 24
-25 27 -39 32 -15 5z"/>
<path d="M3009 1503 c-13 -16 -12 -17 4 -4 16 13 21 21 13 21 -2 0 -10 -8 -17
-17z"/>
<path d="M3053 1507 c0 -7 9 -14 20 -14 11 -1 18 -1 16 0 -2 2 -11 8 -20 15
-12 9 -16 9 -16 -1z"/>
<path d="M3244 1498 l-19 -23 23 19 c12 11 22 21 22 23 0 8 -8 2 -26 -19z"/>
<path d="M3370 1516 c0 -2 8 -10 18 -17 15 -13 16 -12 3 4 -13 16 -21 21 -21
13z"/>
<path d="M3454 1509 c-3 -6 -2 -15 3 -20 5 -5 9 -1 9 11 0 23 -2 24 -12 9z"/>
<path d="M3489 1503 c-13 -16 -12 -17 4 -4 16 13 21 21 13 21 -2 0 -10 -8 -17
-17z"/>
<path d="M3566 1505 c-18 -14 -18 -14 1 -12 11 0 20 7 20 14 0 7 -1 13 -1 13
-1 0 -9 -7 -20 -15z"/>
<path d="M2384 1498 c-4 -5 -3 -12 0 -15 3 -4 6 -1 6 6 0 7 4 10 9 6 5 -3 12
-2 15 3 3 5 -2 9 -10 9 -8 0 -17 -4 -20 -9z"/>
<path d="M2597 1492 c-15 -16 -15 -19 -2 -19 8 0 13 3 10 5 -3 3 0 11 6 19 17
20 5 16 -14 -5z"/>
<path d="M2910 1499 c0 -5 5 -7 10 -4 6 3 10 8 10 11 0 2 -4 4 -10 4 -5 0 -10
-5 -10 -11z"/>
<path d="M3419 1493 c-13 -16 -12 -17 4 -4 16 13 21 21 13 21 -2 0 -10 -8 -17
-17z"/>
<path d="M3616 1498 c3 -5 10 -6 15 -3 13 9 11 12 -6 12 -8 0 -12 -4 -9 -9z"/>
<path d="M3699 1493 c-13 -17 -13 -17 6 -3 11 8 22 16 24 17 2 2 0 3 -6 3 -6
0 -17 -8 -24 -17z"/>
<path d="M232 1491 c-11 -6 -9 -9 6 -13 15 -4 19 -2 15 8 -6 16 -4 16 -21 5z"/>
<path d="M3275 1489 c-4 -6 -5 -12 -2 -15 2 -3 7 2 10 11 7 17 1 20 -8 4z"/>
<path d="M3356 1487 c3 -10 9 -15 12 -12 3 3 0 11 -7 18 -10 9 -11 8 -5 -6z"/>
<path d="M393 1480 c-28 -11 -29 -16 -3 -16 11 0 20 4 20 9 0 4 5 5 12 1 7 -4
8 -3 4 4 -4 7 -8 12 -9 11 -1 0 -12 -4 -24 -9z"/>
<path d="M434 1453 c-14 -23 -15 -26 -1 -15 9 8 22 10 29 6 10 -6 11 -5 1 8
-7 8 -10 18 -6 21 3 4 4 7 1 7 -3 0 -14 -12 -24 -27z"/>
<path d="M1116 1471 c-4 -5 -2 -12 3 -15 5 -4 12 -2 15 3 4 5 2 12 -3 15 -5 4
-12 2 -15 -3z"/>
<path d="M1372 1454 c6 -13 14 -21 19 -19 4 3 10 -1 12 -7 4 -10 6 -10 6 0 1
7 -6 15 -14 18 -8 4 -15 10 -15 15 0 15 24 5 37 -16 7 -11 12 -14 13 -7 0 19
15 15 52 -15 32 -26 32 -26 11 -2 -13 14 -23 32 -23 41 0 19 -28 18 -40 -1 -6
-11 -8 -11 -12 0 -2 7 -16 14 -30 14 -24 2 -25 0 -16 -21z"/>
<path d="M2180 1476 c0 -2 7 -7 16 -10 8 -3 12 -2 9 4 -6 10 -25 14 -25 6z"/>
<path d="M2353 1465 c0 -8 3 -13 5 -10 3 3 10 0 17 -5 8 -7 12 -5 12 5 0 8 -3
13 -5 10 -3 -3 -10 0 -17 5 -8 7 -12 5 -12 -5z"/>
<path d="M3295 1471 c-3 -5 -2 -12 3 -15 5 -3 9 1 9 9 0 17 -3 19 -12 6z"/>
<path d="M3575 1470 c-4 -6 -10 -8 -14 -6 -9 6 -8 -40 1 -49 4 -4 5 1 3 12 -1
10 4 26 13 36 8 9 12 17 9 17 -3 0 -9 -5 -12 -10z"/>
<path d="M315 1460 c3 -5 8 -10 11 -10 2 0 4 5 4 10 0 6 -5 10 -11 10 -5 0 -7
-4 -4 -10z"/>
<path d="M610 1459 c0 -4 7 -10 16 -13 8 -3 13 -2 9 3 -3 5 1 11 7 14 7 3 3 4
-9 4 -13 -1 -23 -4 -23 -8z"/>
<path d="M710 1461 c0 -10 39 -46 43 -40 2 2 -7 14 -20 26 -13 12 -23 19 -23
14z"/>
<path d="M743 1453 c15 -15 60 -27 52 -13 -3 5 9 8 26 7 19 -1 33 3 35 11 1 7
0 8 -3 2 -2 -5 -9 -10 -14 -10 -6 0 -8 3 -6 8 3 4 -19 7 -49 8 -45 0 -52 -2
-41 -13z m41 -5 c-3 -4 -11 -5 -19 -1 -21 7 -19 12 4 10 11 0 18 -5 15 -9z"/>
<path d="M870 1466 c0 -14 35 -51 50 -54 10 -1 8 3 -5 13 -11 9 -26 23 -32 32
-7 9 -13 13 -13 9z"/>
<path d="M896 1458 c3 -4 15 -13 27 -19 12 -7 19 -8 15 -4 -4 4 0 13 8 20 15
11 15 12 0 12 -9 0 -16 -4 -16 -9 0 -4 -5 -8 -11 -8 -5 0 -8 4 -5 8 3 5 -1 9
-9 9 -8 0 -12 -4 -9 -9z"/>
<path d="M963 1452 c-8 -14 -8 -19 1 -19 7 0 13 9 13 19 1 10 1 18 0 18 -1 0
-7 -8 -14 -18z"/>
<path d="M1080 1455 c-7 -9 -10 -18 -6 -22 3 -3 6 -1 6 6 0 9 6 9 23 1 20 -10
20 -10 5 3 -10 8 -15 17 -11 20 3 4 4 7 1 7 -3 0 -11 -7 -18 -15z"/>
<path d="M1535 1460 c3 -5 8 -10 11 -10 2 0 4 5 4 10 0 6 -5 10 -11 10 -5 0
-7 -4 -4 -10z"/>
<path d="M2475 1460 c3 -5 8 -10 11 -10 2 0 4 5 4 10 0 6 -5 10 -11 10 -5 0
-7 -4 -4 -10z"/>
<path d="M2506 1458 c3 -5 10 -6 15 -3 13 9 11 12 -6 12 -8 0 -12 -4 -9 -9z"/>
<path d="M2830 1461 c0 -6 4 -13 10 -16 6 -3 7 1 4 9 -7 18 -14 21 -14 7z"/>
<path d="M3186 1458 c3 -5 10 -6 15 -3 13 9 11 12 -6 12 -8 0 -12 -4 -9 -9z"/>
<path d="M3394 1462 c4 -3 14 -7 22 -8 9 -1 13 0 10 4 -4 3 -14 7 -22 8 -9 1
-13 0 -10 -4z"/>
<path d="M3678 1458 c-9 -5 -6 -7 9 -5 12 2 25 6 28 8 8 9 -23 6 -37 -3z"/>
<path d="M2675 1451 c-3 -5 -2 -12 3 -15 5 -3 9 1 9 9 0 17 -3 19 -12 6z"/>
<path d="M566 1442 c-3 -5 1 -9 9 -9 8 0 12 4 9 9 -3 4 -7 8 -9 8 -2 0 -6 -4
-9 -8z"/>
<path d="M693 1438 c1 -7 -3 -12 -9 -11 -6 1 -11 -5 -11 -13 0 -12 4 -11 18 2
10 9 16 21 13 25 -8 13 -14 11 -11 -3z"/>
<path d="M990 1441 c0 -6 4 -13 10 -16 6 -3 7 1 4 9 -7 18 -14 21 -14 7z"/>
<path d="M1590 1439 c0 -5 5 -7 10 -4 6 3 10 8 10 11 0 2 -4 4 -10 4 -5 0 -10
-5 -10 -11z"/>
<path d="M2196 1441 c-3 -5 2 -15 12 -22 15 -13 16 -12 4 3 -10 13 -10 17 0
21 9 4 9 6 1 6 -6 1 -14 -3 -17 -8z"/>
<path d="M2260 1446 c0 -2 8 -10 18 -17 15 -13 16 -12 3 4 -13 16 -21 21 -21
13z"/>
<path d="M2560 1440 c-9 -6 -10 -10 -3 -10 6 0 15 5 18 10 8 12 4 12 -15 0z"/>
<path d="M2985 1440 c-3 -6 1 -7 9 -4 18 7 21 14 7 14 -6 0 -13 -4 -16 -10z"/>
<path d="M3590 1441 c0 -6 4 -13 10 -16 6 -3 7 1 4 9 -7 18 -14 21 -14 7z"/>
<path d="M852 1431 c-11 -7 -11 -9 0 -14 9 -3 15 1 15 9 0 8 -1 14 -1 14 -1 0
-7 -4 -14 -9z"/>
<path d="M2710 1436 c0 -2 8 -10 18 -17 15 -13 16 -12 3 4 -13 16 -21 21 -21
13z"/>
<path d="M3029 1423 c-13 -16 -12 -17 4 -4 16 13 21 21 13 21 -2 0 -10 -8 -17
-17z"/>
<path d="M815 1420 c3 -5 8 -10 11 -10 2 0 4 5 4 10 0 6 -5 10 -11 10 -5 0 -7
-4 -4 -10z"/>
<path d="M1093 1411 c0 -11 5 -18 9 -15 4 3 5 11 1 19 -7 21 -12 19 -10 -4z"/>
<path d="M1424 1414 c-18 -15 -18 -15 3 -5 30 15 33 14 27 -6 -5 -15 -4 -15 4
-3 21 29 -3 39 -34 14z"/>
<path d="M2130 1422 c0 -4 10 -9 22 -9 18 -2 20 0 8 7 -18 12 -30 13 -30 2z"/>
<path d="M2360 1420 c-9 -6 -10 -10 -3 -10 6 0 15 5 18 10 8 12 4 12 -15 0z"/>
<path d="M2490 1419 c0 -5 5 -7 10 -4 6 3 10 8 10 11 0 2 -4 4 -10 4 -5 0 -10
-5 -10 -11z"/>
<path d="M2615 1420 c3 -5 8 -10 11 -10 2 0 4 5 4 10 0 6 -5 10 -11 10 -5 0
-7 -4 -4 -10z"/>
<path d="M1053 1405 c0 -8 4 -12 9 -9 5 3 6 10 3 15 -9 13 -12 11 -12 -6z"/>
<path d="M3631 1407 c-8 -10 -7 -14 2 -14 8 0 14 6 14 14 0 7 -1 13 -2 13 -2
0 -8 -6 -14 -13z"/>
<path d="M775 1400 c-3 -5 -1 -10 4 -10 6 0 11 5 11 10 0 6 -2 10 -4 10 -3 0
-8 -4 -11 -10z"/>
<path d="M1615 1401 c-3 -5 0 -13 6 -17 8 -5 9 -3 4 6 -6 10 -3 12 13 8 12 -4
20 -2 16 3 -7 12 -31 12 -39 0z"/>
<path d="M2095 1399 c-4 -6 -5 -12 -2 -15 2 -3 7 2 10 11 7 17 1 20 -8 4z"/>
<path d="M2456 1402 c-3 -5 1 -9 9 -9 8 0 12 4 9 9 -3 4 -7 8 -9 8 -2 0 -6 -4
-9 -8z"/>
<path d="M3470 1398 c0 -4 4 -8 9 -8 6 0 12 4 15 8 3 5 -1 9 -9 9 -8 0 -15 -4
-15 -9z"/>
<path d="M3516 1402 c-3 -5 1 -9 9 -9 8 0 12 4 9 9 -3 4 -7 8 -9 8 -2 0 -6 -4
-9 -8z"/>
<path d="M1476 1387 c3 -10 9 -15 12 -12 3 3 0 11 -7 18 -10 9 -11 8 -5 -6z"/>
<path d="M1515 1389 c-4 -6 -5 -12 -2 -15 2 -3 7 2 10 11 7 17 1 20 -8 4z"/>
<path d="M1739 1398 c-5 -9 -5 -48 -1 -43 6 6 11 45 5 45 -2 0 -4 -1 -4 -2z"/>
<path d="M2915 1389 c-4 -6 -5 -12 -2 -15 2 -3 7 2 10 11 7 17 1 20 -8 4z"/>
<path d="M3176 1387 c3 -10 9 -15 12 -12 3 3 0 11 -7 18 -10 9 -11 8 -5 -6z"/>
<path d="M1456 1361 c-3 -5 2 -15 12 -22 15 -12 16 -12 5 2 -7 9 -10 19 -6 22
3 4 4 7 0 7 -3 0 -8 -4 -11 -9z"/>
<path d="M1576 1362 c-3 -5 1 -9 9 -9 8 0 12 4 9 9 -3 4 -7 8 -9 8 -2 0 -6 -4
-9 -8z"/>
<path d="M1960 1360 c-8 -5 -10 -10 -5 -10 6 0 17 5 25 10 8 5 11 10 5 10 -5
0 -17 -5 -25 -10z"/>
<path d="M2076 1362 c-3 -5 1 -9 9 -9 8 0 12 4 9 9 -3 4 -7 8 -9 8 -2 0 -6 -4
-9 -8z"/>
<path d="M2215 1360 c3 -5 8 -10 11 -10 2 0 4 5 4 10 0 6 -5 10 -11 10 -5 0
-7 -4 -4 -10z"/>
<path d="M2335 1360 c3 -5 8 -10 11 -10 2 0 4 5 4 10 0 6 -5 10 -11 10 -5 0
-7 -4 -4 -10z"/>
<path d="M3110 1356 c0 -2 8 -10 18 -17 15 -13 16 -12 3 4 -13 16 -21 21 -21
13z"/>
<path d="M3229 1343 c-13 -16 -12 -17 4 -4 9 7 17 15 17 17 0 8 -8 3 -21 -13z"/>
<path d="M2545 1339 c-3 -4 2 -6 10 -5 21 3 28 13 10 13 -9 0 -18 -4 -20 -8z"/>
<path d="M3360 1340 c-9 -6 -10 -10 -3 -10 6 0 15 5 18 10 8 12 4 12 -15 0z"/>
<path d="M2174 1322 c4 -3 14 -7 22 -8 9 -1 13 0 10 4 -4 3 -14 7 -22 8 -9 1
-13 0 -10 -4z"/>
<path d="M2254 1316 c1 -8 5 -18 8 -22 4 -3 5 1 4 10 -1 8 -5 18 -8 22 -4 3
-5 -1 -4 -10z"/>
<path d="M2430 1325 c0 -7 30 -13 34 -7 3 4 -4 9 -15 9 -10 1 -19 0 -19 -2z"/>
<path d="M2494 1322 c4 -3 14 -7 22 -8 9 -1 13 0 10 4 -4 3 -14 7 -22 8 -9 1
-13 0 -10 -4z"/>
<path d="M2594 1322 c4 -3 14 -7 22 -8 9 -1 13 0 10 4 -4 3 -14 7 -22 8 -9 1
-13 0 -10 -4z"/>
<path d="M2694 1316 c1 -8 5 -18 8 -22 4 -3 5 1 4 10 -1 8 -5 18 -8 22 -4 3
-5 -1 -4 -10z"/>
<path d="M2730 1320 c0 -5 5 -10 11 -10 5 0 7 5 4 10 -3 6 -8 10 -11 10 -2 0
-4 -4 -4 -10z"/>
<path d="M3400 1320 c-9 -6 -10 -10 -3 -10 6 0 15 5 18 10 8 12 4 12 -15 0z"/>
<path d="M3355 1309 c-4 -6 -5 -12 -2 -15 2 -3 7 2 10 11 7 17 1 20 -8 4z"/>
<path d="M3317 1295 c-4 -8 -3 -16 1 -19 4 -3 9 4 9 15 2 23 -3 25 -10 4z"/>
<path d="M3576 1298 c3 -5 10 -6 15 -3 13 9 11 12 -6 12 -8 0 -12 -4 -9 -9z"/>
<path d="M2855 1280 c3 -5 8 -10 11 -10 2 0 4 5 4 10 0 6 -5 10 -11 10 -5 0
-7 -4 -4 -10z"/>
<path d="M3469 1277 c6 -8 7 -18 3 -22 -4 -5 -1 -5 6 -1 10 6 10 11 1 22 -6 8
-14 14 -16 14 -3 0 0 -6 6 -13z"/>
<path d="M2496 1262 c-3 -5 1 -9 9 -9 8 0 12 4 9 9 -3 4 -7 8 -9 8 -2 0 -6 -4
-9 -8z"/>
<path d="M2655 1260 c-3 -5 -1 -10 4 -10 6 0 11 5 11 10 0 6 -2 10 -4 10 -3 0
-8 -4 -11 -10z"/>
<path d="M2779 1268 c-5 -18 -6 -38 -1 -34 7 8 12 36 6 36 -2 0 -4 -1 -5 -2z"/>
<path d="M3050 1239 c0 -5 5 -7 10 -4 6 3 10 8 10 11 0 2 -4 4 -10 4 -5 0 -10
-5 -10 -11z"/>
<path d="M3393 1235 c0 -8 4 -12 9 -9 5 3 6 10 3 15 -9 13 -12 11 -12 -6z"/>
<path d="M3154 1229 c-3 -6 -2 -15 3 -20 5 -5 9 -1 9 11 0 23 -2 24 -12 9z"/>
<path d="M3326 1221 c-14 -15 -15 -21 -4 -27 7 -4 10 -3 5 1 -4 5 0 17 10 27
9 10 14 18 11 18 -3 0 -13 -9 -22 -19z"/>
<path d="M2739 1208 c-5 -18 -6 -38 -1 -34 7 8 12 36 6 36 -2 0 -4 -1 -5 -2z"/>
<path d="M2819 1208 c-5 -18 -6 -38 -1 -34 7 8 12 36 6 36 -2 0 -4 -1 -5 -2z"/>
<path d="M2353 1175 c0 -8 4 -12 9 -9 5 3 6 10 3 15 -9 13 -12 11 -12 -6z"/>
<path d="M3176 1173 c-6 -14 -5 -15 5 -6 7 7 10 15 7 18 -3 3 -9 -2 -12 -12z"/>
<path d="M3416 1178 c3 -4 11 -5 19 -1 21 7 19 12 -4 10 -11 0 -18 -5 -15 -9z"/>
<path d="M2696 1158 c3 -5 10 -6 15 -3 13 9 11 12 -6 12 -8 0 -12 -4 -9 -9z"/>
<path d="M2890 1159 c0 -5 5 -7 10 -4 6 3 10 8 10 11 0 2 -4 4 -10 4 -5 0 -10
-5 -10 -11z"/>
<path d="M3107 1139 c7 -7 15 -10 18 -7 3 3 -2 9 -12 12 -14 6 -15 5 -6 -5z"/>
<path d="M2895 1120 c3 -5 8 -10 11 -10 2 0 4 5 4 10 0 6 -5 10 -11 10 -5 0
-7 -4 -4 -10z"/>
<path d="M2716 1102 c-3 -5 1 -9 9 -9 8 0 12 4 9 9 -3 4 -7 8 -9 8 -2 0 -6 -4
-9 -8z"/>
<path d="M3105 1100 c-3 -6 1 -7 9 -4 18 7 21 14 7 14 -6 0 -13 -4 -16 -10z"/>
<path d="M2655 1079 c-3 -4 2 -6 10 -5 21 3 28 13 10 13 -9 0 -18 -4 -20 -8z"/>
<path d="M2760 1080 c-12 -7 -10 -9 7 -7 12 0 19 5 17 9 -6 10 -6 10 -24 -2z"/>
<path d="M2815 1080 c3 -5 8 -10 11 -10 2 0 4 5 4 10 0 6 -5 10 -11 10 -5 0
-7 -4 -4 -10z"/>
<path d="M2855 1080 c-3 -5 -1 -10 4 -10 6 0 11 5 11 10 0 6 -2 10 -4 10 -3 0
-8 -4 -11 -10z"/>
<path d="M2600 1060 c-9 -6 -10 -10 -3 -10 6 0 15 5 18 10 8 12 4 12 -15 0z"/>
<path d="M2674 1042 c4 -3 14 -7 22 -8 9 -1 13 0 10 4 -4 3 -14 7 -22 8 -9 1
-13 0 -10 -4z"/>
<path d="M2756 1015 c-9 -26 -7 -32 5 -12 6 10 9 21 6 23 -2 3 -7 -2 -11 -11z"/>
<path d="M2895 1011 c-3 -5 -2 -12 3 -15 5 -3 9 1 9 9 0 17 -3 19 -12 6z"/>
</g>
</svg>
