<!-- Generated by IcoMoon.io -->
<svg version="1.1" xmlns="http://www.w3.org/2000/svg" width="1024" height="1024" viewBox="0 0 1024 1024">
<title></title>
<g id="icomoon-ignore">
</g>
<path fill="#f00" d="M156.587 261.973c0 0-78.933 75.52-83.2 155.307v14.933c3.413 64.427 52.053 102.4 52.053 102.4 78.080 76.373 267.093 172.373 311.467 194.133 0 0 2.56 1.28 4.267-0.427l0.853-1.707v-1.707c-121.173-264.107-285.44-462.933-285.44-462.933zM411.733 793.6c-0.853-3.413-4.267-3.413-4.267-3.413l-314.88 11.093c34.133 61.013 91.733 107.947 151.893 93.867 40.96-10.667 134.827-75.947 165.547-98.133 2.56-2.133 1.707-3.84 1.707-3.413zM415.147 760.32c-138.24-93.44-406.187-236.373-406.187-236.373-6.4 19.627-8.533 38.4-8.96 55.467v2.987c0 45.653 17.067 77.653 17.067 77.653 34.133 72.107 99.84 93.867 99.84 93.867 29.867 12.8 59.733 13.227 59.733 13.227 5.12 0.853 187.733 0 236.373 0 2.133 0 3.413-2.133 3.413-2.133v-2.56c0-1.28-1.28-2.133-1.28-2.133zM386.56 136.107c-61.36 16.050-106.45 69.543-109.64 134.058l-0.013 0.342v17.493c1.28 25.6 6.827 44.8 6.827 44.8 28.16 123.733 164.693 326.4 194.133 369.067 2.133 2.133 4.267 1.28 4.267 1.28 1.527-0.672 2.574-2.172 2.574-3.917 0-0.123-0.005-0.245-0.015-0.366l0.001 0.016c45.227-452.267-47.36-572.587-47.36-572.587-13.653 0.853-50.773 9.813-50.773 9.813zM740.693 232.96c0 0-20.907-76.8-104.107-97.28 0 0-24.32-5.973-49.92-9.387 0 0-93.013 119.893-47.787 573.013 0.427 2.987 2.56 3.413 2.56 3.413 2.987 1.28 4.267-1.28 4.267-1.28 30.72-43.947 166.4-245.76 194.133-368.64 0 0 15.36-59.733 0.853-99.84zM616.107 790.613c0 0-2.987 0-3.84 2.133 0 0-0.427 2.987 1.28 4.267 29.867 21.76 121.6 85.333 165.547 98.133 0 0 6.827 2.133 18.347 2.56h5.973c29.44-0.853 81.067-15.787 128-96.427zM950.187 431.787c5.973-87.893-82.773-169.387-82.773-169.813 0 0-164.267 198.827-284.587 460.8 0 0-1.28 3.413 0.853 5.547l1.707 0.427h2.56c45.227-22.613 232.96-118.187 310.613-193.707 0 0 49.067-39.68 51.627-103.253zM1015.040 523.093c0 0-267.947 143.787-406.187 236.8 0 0-2.133 1.707-1.28 4.693 0 0 1.28 2.56 2.987 2.56 49.493 0 237.227 0 241.92-0.853 0 0 24.32-0.853 54.187-12.373 0 0 66.56-21.333 101.12-96.853 0 0 31.147-61.867 7.253-133.973z"></path>
</svg>
